PERFORMER "Joris Voorn"
TITLE "Essential Mix (2009-04-18) [TMB]"
FILE "Essential Mix_Joris Voorn_2009_04_18.mp3" MP3
  TRACK 01 AUDIO
    PERFORMER "Essential Mix"
    TITLE "Intro"
    INDEX 01 00:00:00
  TRACK 02 AUDIO
    PERFORMER "Zmar Feat. Avi / Blamstraim"
    TITLE "Singing Stars / Frame Math"
    INDEX 01 02:18:00
  TRACK 03 AUDIO
    PERFORMER "Joakim / The Aloof"
    TITLE "Tanabata / Morning Spangle"
    INDEX 01 03:48:00
  TRACK 04 AUDIO
    PERFORMER "Andrew Bird / Izmar / The Detroit Experiment / Biosphere"
    TITLE "Effigy / Weird Friend / A Taste Of Tribe / Mir"
    INDEX 01 08:53:00
  TRACK 05 AUDIO
    PERFORMER "Apparat / Biosphere"
    TITLE "Fractales Pt.2 / Mir"
    INDEX 01 14:02:00
  TRACK 06 AUDIO
    PERFORMER "Nikolaj Grandjean / Bola"
    TITLE "First Picture / Aguilla"
    INDEX 01 16:03:00
  TRACK 07 AUDIO
    PERFORMER "Pete Namlook & Jochem Paap / IMPS / Mano"
    TITLE "Cll T M Frnd / Almost Live But Definitely Plugged (Move D Remix) / Abyss"
    INDEX 01 18:37:00
  TRACK 08 AUDIO
    PERFORMER "Mano / Azuni"
    TITLE "Abyss / Use Me"
    INDEX 01 24:19:00
  TRACK 09 AUDIO
    PERFORMER "Code 718 / Guy Noir"
    TITLE "Equinox (Henrik Schwarz Dub) / Delusion (Argy Big Room Dub)"
    INDEX 01 26:26:00
  TRACK 10 AUDIO
    PERFORMER "Ben Klock / Yagya"
    TITLE "Subzero / Rigning Niu"
    INDEX 01 32:32:00		
  TRACK 11 AUDIO
    PERFORMER "Yagya"
    TITLE "Rigning Niu"
    INDEX 01 35:55:00
  TRACK 12 AUDIO
    PERFORMER "Filippo Moscatello"
    TITLE "Furio Wild Beach"
    INDEX 01 37:18:00	
  TRACK 13 AUDIO
    PERFORMER "AXUS"
    TITLE "Suite Disappointment"
    INDEX 01 41:01:00 
  TRACK 14 AUDIO
    PERFORMER "Model 500 / Amê"
    TITLE "The Flow (Frank De Wulf Remix) / Doldrums"
    INDEX 01 46:18:00
  TRACK 15 AUDIO
    PERFORMER "Milton Jackson"
    TITLE "The Rhythm Track (Jimpster Remix)"
    INDEX 01 50:54:00
  TRACK 16 AUDIO
    PERFORMER "Loko"
    TITLE "Black House"
    INDEX 01 54:28:00
  TRACK 17 AUDIO
    PERFORMER "Masomenos / Dop, Markus Homm, Feygin"
    TITLE "Ladies / Budva (Slum Dop Remix)"
    INDEX 01 56:40:00
  TRACK 18 AUDIO
    PERFORMER "Ernesto Ferreyra"
    TITLE "Osmosis"
    INDEX 01 60:45:00
  TRACK 19 AUDIO
    PERFORMER "Matt Nordstrom & Orlando Villegas"
    TITLE "Spanglish"
    INDEX 01 61:25:00
  TRACK 20 AUDIO
    PERFORMER "Quince"
    TITLE "Electric"
    INDEX 01 64:58:00
  TRACK 21 AUDIO
    PERFORMER "Hermanez"
    TITLE "Marrakech (Martinez Remix)"
    INDEX 01 69:38:00
  TRACK 22 AUDIO
    PERFORMER "Joris Voorn"
    TITLE "Empty Trash"
    INDEX 01 72:25:00
  TRACK 23 AUDIO
    PERFORMER "Radio Slave"
    TITLE "Sundazed"
    INDEX 01 76:29:00
  TRACK 24 AUDIO
    PERFORMER "Slam"
    TITLE "Positive Education (Paul Ritch Remix)"
    INDEX 01 79:45:00
  TRACK 25 AUDIO
    PERFORMER "Joris Voorn"
    TITLE "Sweep The Floor"
    INDEX 01 82:20:00
  TRACK 26 AUDIO
    PERFORMER "I:Cube"
    TITLE "Supernovac (Joris Voorn Unofficial Edit)"
    INDEX 01 86:31:00
  TRACK 27 AUDIO
    PERFORMER "Nuno Dos Santos & Patrice Baumel"
    TITLE "Untitled"
    INDEX 01 91:30:00	
  TRACK 28 AUDIO
    PERFORMER "Tadeo / Tadeo / Tadeo"
    TITLE "Metro / Signo de Intrusión / Transmission"
    INDEX 01 97:03:00
  TRACK 29 AUDIO
    PERFORMER "Autechre / Teddy Douglas & Luis Radio"
    TITLE "Nine / The Violin (5 Mile House Mix)"
    INDEX 01 98:04:00
  TRACK 30 AUDIO
    PERFORMER "Wigald Boning"  
    TITLE "Kobra Dance (Joris Voorn Interpretation)"
    INDEX 01 101:05:00  
  TRACK 31 AUDIO
    PERFORMER "Ripperton / Carl Craig "
    TITLE "Random Violence / Es.30"
    INDEX 01 108:37:00
  TRACK 32 AUDIO
    PERFORMER "Kettel / Sigur Ros"
    TITLE "Mannschaft / Heysátan"
    INDEX 01 112:50:00
  TRACK 33 AUDIO
    PERFORMER "Sigur Ros / Pj Harvey & John Parish"
    TITLE "Heysátan / Cracks In The Canvas"
    INDEX 01 114:53:00 
  TRACK 34 AUDIO
    PERFORMER "Pj Harvey & John Parish"
    TITLE "Cracks In The Canvas"
    INDEX 01 117:51:00 